<svg aria-hidden="true" style="position: absolute; width: 0; height: 0; overflow: hidden;" version="1.1" xmlns="http://www.w3.org/2000/svg" xmlns:xlink="http://www.w3.org/1999/xlink">
<defs>
<symbol id="icon-bike_scooter" viewBox="0 0 32 32">
<path d="M0 25.333v-2.667h5.467q0.367-2.267 1.883-3.967t3.717-2.367l-1.933-8.333h-5.133v-2.667h5.133q0.9 0 1.65 0.583t0.95 1.483l2.6 11.267h-1q-2.2 0-3.767 1.567t-1.567 3.767v1.333h-8zM13.333 28q-1.667 0-2.833-1.167t-1.167-2.833 1.167-2.833 2.833-1.167 2.833 1.167 1.167 2.833-1.167 2.833-2.833 1.167zM13.333 25.333q0.567 0 0.95-0.383t0.383-0.95-0.383-0.95-0.95-0.383-0.95 0.383-0.383 0.95 0.383 0.95 0.95 0.383zM25.333 24q-2.4 0-4.217-1.483t-2.317-3.85h-3.133l-0.6-2.667h3.733q0.167-0.767 0.45-1.433t0.75-1.233h-5.533l-0.6-2.667h7.533l-1.467-4h-3.467v-2.667h3.467q0.867 0 1.55 0.467t0.983 1.267l1.8 4.867h1.067q2.767 0 4.717 1.95t1.95 4.717q0 2.833-1.95 4.783t-4.717 1.95zM25.333 21.333q1.7 0 2.85-1.167t1.15-2.833q0-1.7-1.15-2.85t-2.85-1.15h-0.133l1.333 3.533-2.533 0.933-1.267-3.533q-0.667 0.567-1.033 1.333t-0.367 1.733q0 1.667 1.15 2.833t2.85 1.167z"></path>
</symbol>
<symbol id="icon-local_laundry_service" viewBox="0 0 32 32">
<path d="M8 29.333q-1.1 0-1.883-0.783t-0.783-1.883v-21.333q0-1.1 0.783-1.883t1.883-0.783h16q1.1 0 1.883 0.783t0.783 1.883v21.333q0 1.1-0.783 1.883t-1.883 0.783h-16zM8 26.667h16v-21.333h-16v21.333zM16 25.333q2.767 0 4.717-1.95t1.95-4.717-1.95-4.717-4.717-1.95-4.717 1.95-1.95 4.717 1.95 4.717 4.717 1.95zM16 23.067q-0.867 0-1.683-0.317t-1.45-0.95l6.267-6.267q0.633 0.633 0.95 1.45t0.317 1.683q0 1.833-1.283 3.117t-3.117 1.283zM10.667 9.333q0.567 0 0.95-0.383t0.383-0.95-0.383-0.95-0.95-0.383-0.95 0.383-0.383 0.95 0.383 0.95 0.95 0.383zM14.667 9.333q0.567 0 0.95-0.383t0.383-0.95-0.383-0.95-0.95-0.383-0.95 0.383-0.383 0.95 0.383 0.95 0.95 0.383zM8 26.667v0z"></path>
</symbol>
<symbol id="icon-headphones" viewBox="0 0 32 32">
<path d="M12 28h-5.333q-1.1 0-1.883-0.783t-0.783-1.883v-9.333q0-2.5 0.95-4.683t2.567-3.8 3.8-2.567 4.683-0.95 4.683 0.95 3.8 2.567 2.567 3.8 0.95 4.683v9.333q0 1.1-0.783 1.883t-1.883 0.783h-5.333v-10.667h5.333v-1.333q0-3.9-2.717-6.617t-6.617-2.717-6.617 2.717-2.717 6.617v1.333h5.333v10.667zM9.333 20h-2.667v5.333h2.667v-5.333zM22.667 20v5.333h2.667v-5.333h-2.667zM9.333 20v0zM22.667 20v0z"></path>
</symbol>
<symbol id="icon-phone_iphone" viewBox="0 0 32 32">
<path d="M9.333 30.667q-1.1 0-1.883-0.783t-0.783-1.883v-24q0-1.1 0.783-1.883t1.883-0.783h13.333q1.1 0 1.883 0.783t0.783 1.883v24q0 1.1-0.783 1.883t-1.883 0.783h-13.333zM9.333 24v4h13.333v-4h-13.333zM16 27.333q0.567 0 0.95-0.383t0.383-0.95-0.383-0.95-0.95-0.383-0.95 0.383-0.383 0.95 0.383 0.95 0.95 0.383zM9.333 21.333h13.333v-13.333h-13.333v13.333zM9.333 5.333h13.333v-1.333h-13.333v1.333zM9.333 24v0zM9.333 5.333v0z"></path>
</symbol>
<symbol id="icon-tv" viewBox="0 0 32 32">
<path d="M5.333 28v-2.667q-1.1 0-1.883-0.783t-0.783-1.883v-14.667q0-1.1 0.783-1.883t1.883-0.783h21.333q1.1 0 1.883 0.783t0.783 1.883v14.667q0 1.1-0.783 1.883t-1.883 0.783v2.667h-1.333l-0.867-2.667h-16.9l-0.9 2.667h-1.333zM5.333 22.667h21.333v-14.667h-21.333v14.667z"></path>
</symbol>
<symbol id="icon-desktop_windows" viewBox="0 0 32 32">
<path d="M10.667 28v-2.667h2.667v-2.667h-8q-1.1 0-1.883-0.783t-0.783-1.883v-13.333q0-1.1 0.783-1.883t1.883-0.783h21.333q1.1 0 1.883 0.783t0.783 1.883v13.333q0 1.1-0.783 1.883t-1.883 0.783h-8v2.667h2.667v2.667h-10.667zM5.333 20h21.333v-13.333h-21.333v13.333zM5.333 20v0z"></path>
</symbol>
</defs>
</svg>